<mxfile host="Electron" modified="2024-04-09T07:24:15.265Z" agent="Mozilla/5.0 (Windows NT 10.0; Win64; x64) AppleWebKit/537.36 (KHTML, like Gecko) draw.io/23.0.2 Chrome/120.0.6099.109 Electron/28.1.0 Safari/537.36" etag="fIUaZZM2_TYkTzyHU2ti" version="23.0.2" type="device">
  <diagram name="Page-1" id="ely7fSwyMPUF6U8_hn1B">
    <mxGraphModel dx="819" dy="478" grid="1" gridSize="10" guides="1" tooltips="1" connect="1" arrows="1" fold="1" page="1" pageScale="1" pageWidth="850" pageHeight="1100" math="0" shadow="0">
      <root>
        <mxCell id="0" />
        <mxCell id="1" parent="0" />
        <mxCell id="Byl1jdUAw4kpEC6_h2Oc-1" value="User" style="shape=umlActor;verticalLabelPosition=bottom;verticalAlign=top;html=1;" vertex="1" parent="1">
          <mxGeometry x="70" y="380" width="30" height="60" as="geometry" />
        </mxCell>
        <mxCell id="Byl1jdUAw4kpEC6_h2Oc-3" value="Database" style="shape=umlActor;verticalLabelPosition=bottom;verticalAlign=top;html=1;" vertex="1" parent="1">
          <mxGeometry x="710" y="380" width="30" height="60" as="geometry" />
        </mxCell>
        <mxCell id="Byl1jdUAw4kpEC6_h2Oc-7" value="Website" style="shape=umlFrame;whiteSpace=wrap;html=1;pointerEvents=0;" vertex="1" parent="1">
          <mxGeometry x="170" y="220" width="488.89" height="300" as="geometry" />
        </mxCell>
        <mxCell id="Byl1jdUAw4kpEC6_h2Oc-11" value="Create recipe" style="ellipse;whiteSpace=wrap;html=1;" vertex="1" parent="1">
          <mxGeometry x="360" y="230" width="90" height="60" as="geometry" />
        </mxCell>
        <mxCell id="Byl1jdUAw4kpEC6_h2Oc-12" value="Create ingredient" style="ellipse;whiteSpace=wrap;html=1;" vertex="1" parent="1">
          <mxGeometry x="360" y="300" width="90" height="60" as="geometry" />
        </mxCell>
        <mxCell id="Byl1jdUAw4kpEC6_h2Oc-13" value="Show overview ingredients" style="ellipse;whiteSpace=wrap;html=1;" vertex="1" parent="1">
          <mxGeometry x="360" y="370" width="90" height="60" as="geometry" />
        </mxCell>
        <mxCell id="Byl1jdUAw4kpEC6_h2Oc-14" value="Show overview recipes" style="ellipse;whiteSpace=wrap;html=1;" vertex="1" parent="1">
          <mxGeometry x="360" y="440" width="90" height="60" as="geometry" />
        </mxCell>
        <mxCell id="Byl1jdUAw4kpEC6_h2Oc-17" value="" style="endArrow=none;html=1;rounded=0;" edge="1" parent="1">
          <mxGeometry width="50" height="50" relative="1" as="geometry">
            <mxPoint x="100" y="400" as="sourcePoint" />
            <mxPoint x="359" y="268" as="targetPoint" />
          </mxGeometry>
        </mxCell>
        <mxCell id="Byl1jdUAw4kpEC6_h2Oc-18" value="" style="endArrow=none;html=1;rounded=0;" edge="1" parent="1">
          <mxGeometry width="50" height="50" relative="1" as="geometry">
            <mxPoint x="101" y="400" as="sourcePoint" />
            <mxPoint x="360" y="330" as="targetPoint" />
          </mxGeometry>
        </mxCell>
        <mxCell id="Byl1jdUAw4kpEC6_h2Oc-19" value="" style="endArrow=none;html=1;rounded=0;" edge="1" parent="1">
          <mxGeometry width="50" height="50" relative="1" as="geometry">
            <mxPoint x="101" y="400" as="sourcePoint" />
            <mxPoint x="360" y="400" as="targetPoint" />
          </mxGeometry>
        </mxCell>
        <mxCell id="Byl1jdUAw4kpEC6_h2Oc-20" value="" style="endArrow=none;html=1;rounded=0;" edge="1" parent="1">
          <mxGeometry width="50" height="50" relative="1" as="geometry">
            <mxPoint x="101" y="400" as="sourcePoint" />
            <mxPoint x="360" y="469.71" as="targetPoint" />
          </mxGeometry>
        </mxCell>
        <mxCell id="Byl1jdUAw4kpEC6_h2Oc-22" value="" style="endArrow=none;html=1;rounded=0;" edge="1" parent="1">
          <mxGeometry width="50" height="50" relative="1" as="geometry">
            <mxPoint x="450" y="269.14" as="sourcePoint" />
            <mxPoint x="709" y="401.14" as="targetPoint" />
          </mxGeometry>
        </mxCell>
        <mxCell id="Byl1jdUAw4kpEC6_h2Oc-23" value="" style="endArrow=none;html=1;rounded=0;" edge="1" parent="1">
          <mxGeometry width="50" height="50" relative="1" as="geometry">
            <mxPoint x="451" y="331.14" as="sourcePoint" />
            <mxPoint x="710" y="401.14" as="targetPoint" />
          </mxGeometry>
        </mxCell>
        <mxCell id="Byl1jdUAw4kpEC6_h2Oc-24" value="" style="endArrow=none;html=1;rounded=0;" edge="1" parent="1">
          <mxGeometry width="50" height="50" relative="1" as="geometry">
            <mxPoint x="451" y="401.14" as="sourcePoint" />
            <mxPoint x="710" y="401.14" as="targetPoint" />
          </mxGeometry>
        </mxCell>
        <mxCell id="Byl1jdUAw4kpEC6_h2Oc-25" value="" style="endArrow=none;html=1;rounded=0;" edge="1" parent="1">
          <mxGeometry width="50" height="50" relative="1" as="geometry">
            <mxPoint x="451" y="470.84999999999997" as="sourcePoint" />
            <mxPoint x="710" y="401.14" as="targetPoint" />
          </mxGeometry>
        </mxCell>
      </root>
    </mxGraphModel>
  </diagram>
</mxfile>
